<svg width="15" height="14" viewBox="0 0 15 14" fill="none" xmlns="http://www.w3.org/2000/svg">
<path d="M13.515 2.33334H11.5725L9.54 0.225568C9.46992 0.153483 9.38681 0.0964522 9.29543 0.0577464C9.20405 0.0190407 9.1062 -0.000578805 9.0075 1.3e-05H6.0075C5.805 1.3e-05 5.6175 0.0855684 5.475 0.225568L3.4425 2.33334H1.5C0.675 2.33334 0 3.03334 0 3.8889V12.4444C0 13.3 0.675 14 1.5 14H13.5C14.325 14 15 13.3 15 12.4444V3.8889C15 3.03334 14.325 2.33334 13.5 2.33334H13.515ZM7.515 10.8889C5.8875 10.8889 4.515 9.46556 4.515 7.77778C4.515 6.09001 5.8875 4.66668 7.515 4.66668C9.1425 4.66668 10.515 6.09001 10.515 7.77778C10.515 9.46556 9.1425 10.8889 7.515 10.8889Z" fill="white"/>
</svg>
