<svg width="20" height="13" viewBox="0 0 20 13" fill="none" xmlns="http://www.w3.org/2000/svg">
<path d="M2.75 0C2.02065 0 1.32118 0.289731 0.805456 0.805456C0.289731 1.32118 0 2.02065 0 2.75V10.25C0 10.9793 0.289731 11.6788 0.805456 12.1945C1.32118 12.7103 2.02065 13 2.75 13H11.25C11.9793 13 12.6788 12.7103 13.1945 12.1945C13.7103 11.6788 14 10.9793 14 10.25V8.656L17.419 11.701C18.224 12.418 19.5 11.846 19.5 10.767V1.865C19.5 0.785 18.224 0.214 17.419 0.931L14 3.976V2.75C14 2.02065 13.7103 1.32118 13.1945 0.805456C12.6788 0.289731 11.9793 0 11.25 0H2.75Z" fill="white"/>
</svg>
