<svg width="16" height="15" viewBox="0 0 16 15" fill="none" xmlns="http://www.w3.org/2000/svg">
<path d="M0 1.66667C0 1.22464 0.168571 0.800716 0.468629 0.488155C0.768687 0.175595 1.17565 0 1.6 0H14.4C14.8243 0 15.2313 0.175595 15.5314 0.488155C15.8314 0.800716 16 1.22464 16 1.66667C16 2.10869 15.8314 2.53262 15.5314 2.84518C15.2313 3.15774 14.8243 3.33333 14.4 3.33333H1.6C1.17565 3.33333 0.768687 3.15774 0.468629 2.84518C0.168571 2.53262 0 2.10869 0 1.66667ZM13.6 5C14.0104 5 14.3488 5.38583 14.3944 5.88333L14.4 6V12C14.4 13.5975 13.4008 14.9033 12.1408 14.995L12 15H4C2.7216 15 1.6768 13.7508 1.604 12.1767L1.6 12V6C1.6 5.4475 1.9584 5 2.4 5H13.6ZM9.6 6.66667H6.4L6.3064 6.6725C6.11196 6.69659 5.93276 6.79413 5.80273 6.94664C5.67271 7.09915 5.60089 7.29603 5.60089 7.5C5.60089 7.70397 5.67271 7.90085 5.80273 8.05336C5.93276 8.20587 6.11196 8.30341 6.3064 8.3275L6.4 8.33333H9.6L9.6936 8.3275C9.88804 8.30341 10.0672 8.20587 10.1973 8.05336C10.3273 7.90085 10.3991 7.70397 10.3991 7.5C10.3991 7.29603 10.3273 7.09915 10.1973 6.94664C10.0672 6.79413 9.88804 6.69659 9.6936 6.6725L9.6 6.66667Z" fill="white"/>
</svg>
