<svg width="22" height="16" viewBox="0 0 22 16" fill="none" xmlns="http://www.w3.org/2000/svg">
<path d="M3.22245 0.342233C3.44588 0.137394 3.74141 0.0258781 4.04676 0.0311788C4.35211 0.0364794 4.64345 0.158183 4.8594 0.370649C5.07535 0.583115 5.19905 0.869755 5.20444 1.17018C5.20982 1.47061 5.09648 1.76136 4.88828 1.98119C3.2674 3.57599 2.35681 5.73896 2.35681 7.9943C2.35681 10.2496 3.2674 12.4126 4.88828 14.0074C5.09648 14.2272 5.20982 14.518 5.20444 14.8184C5.19905 15.1189 5.07535 15.4055 4.8594 15.618C4.64345 15.8304 4.35211 15.9521 4.04676 15.9574C3.74141 15.9627 3.44588 15.8512 3.22245 15.6464C2.20081 14.6413 1.3904 13.4481 0.837492 12.1349C0.284581 10.8217 0 9.41419 0 7.99276C0 6.57133 0.284581 5.16382 0.837492 3.85061C1.3904 2.53739 2.20081 1.34419 3.22245 0.33914M17.1117 0.33914C17.3327 0.121978 17.6323 0 17.9446 0C18.257 0 18.5566 0.121978 18.7775 0.33914C19.7992 1.34419 20.6096 2.53739 21.1625 3.85061C21.7154 5.16382 22 6.57133 22 7.99276C22 9.41419 21.7154 10.8217 21.1625 12.1349C20.6096 13.4481 19.7992 14.6413 18.7775 15.6464C18.6688 15.7571 18.5387 15.8454 18.3948 15.9061C18.251 15.9668 18.0963 15.9987 17.9398 16C17.7833 16.0012 17.6281 15.9718 17.4833 15.9134C17.3385 15.8551 17.2069 15.7689 17.0963 15.66C16.9857 15.551 16.8983 15.4215 16.8391 15.279C16.7799 15.1364 16.7501 14.9837 16.7515 14.8297C16.753 14.6758 16.7856 14.5236 16.8474 14.3822C16.9092 14.2407 16.9991 14.1128 17.1117 14.0059C18.7326 12.4111 19.6432 10.2481 19.6432 7.99276C19.6432 5.73742 18.7326 3.57444 17.1117 1.97964C17.0022 1.87195 16.9153 1.74408 16.856 1.60334C16.7967 1.4626 16.7662 1.31174 16.7662 1.15939C16.7662 1.00704 16.7967 0.856187 16.856 0.715445C16.9153 0.574703 17.0022 0.446833 17.1117 0.33914ZM6.5604 3.62324C6.6683 3.5093 6.79843 3.41792 6.94301 3.35454C7.08759 3.29116 7.24367 3.25708 7.40192 3.25433C7.56018 3.25158 7.71738 3.28023 7.86415 3.33855C8.01091 3.39687 8.14423 3.48368 8.25615 3.5938C8.36807 3.70392 8.45631 3.83509 8.51559 3.97948C8.57487 4.12388 8.60398 4.27854 8.60119 4.43425C8.5984 4.58995 8.56376 4.74351 8.49934 4.88576C8.43492 5.028 8.34203 5.15603 8.22623 5.26219C7.8613 5.62115 7.57181 6.04732 7.3743 6.51636C7.17679 6.98541 7.07513 7.48814 7.07513 7.99585C7.07513 8.50355 7.17679 9.00629 7.3743 9.47533C7.57181 9.94438 7.8613 10.3705 8.22623 10.7295C8.43443 10.9493 8.54777 11.2401 8.54239 11.5405C8.537 11.8409 8.4133 12.1276 8.19735 12.34C7.9814 12.5525 7.69006 12.6742 7.38471 12.6795C7.07936 12.6848 6.78383 12.5733 6.5604 12.3685C5.38193 11.2087 4.7199 9.63582 4.7199 7.99585C4.7199 6.35588 5.38193 4.78305 6.5604 3.62324ZM13.7832 3.62324C14.0042 3.40608 14.3038 3.2841 14.6161 3.2841C14.9285 3.2841 15.228 3.40608 15.449 3.62324C16.6275 4.78305 17.2895 6.35588 17.2895 7.99585C17.2895 9.63582 16.6275 11.2087 15.449 12.3685C15.3411 12.4824 15.211 12.5738 15.0664 12.6372C14.9218 12.7005 14.7658 12.7346 14.6075 12.7374C14.4492 12.7401 14.292 12.7115 14.1453 12.6531C13.9985 12.5948 13.8652 12.508 13.7533 12.3979C13.6414 12.2878 13.5531 12.1566 13.4938 12.0122C13.4346 11.8678 13.4054 11.7132 13.4082 11.5575C13.411 11.4017 13.4457 11.2482 13.5101 11.1059C13.5745 10.9637 13.6674 10.8357 13.7832 10.7295C14.5197 10.0046 14.9335 9.0216 14.9335 7.99662C14.9335 6.97164 14.5197 5.98862 13.7832 5.26374C13.6737 5.15605 13.5868 5.02818 13.5275 4.88743C13.4682 4.74669 13.4377 4.59584 13.4377 4.44349C13.4377 4.29114 13.4682 4.14028 13.5275 3.99954C13.5868 3.8588 13.6737 3.73093 13.7832 3.62324ZM11.0016 6.44966C11.4184 6.44966 11.8181 6.61257 12.1128 6.90253C12.4075 7.1925 12.5731 7.58578 12.5731 7.99585C12.5731 8.40592 12.4075 8.7992 12.1128 9.08917C11.8181 9.37913 11.4184 9.54203 11.0016 9.54203C10.5848 9.54203 10.185 9.37913 9.89032 9.08917C9.5956 8.7992 9.43003 8.40592 9.43003 7.99585C9.43003 7.58578 9.5956 7.1925 9.89032 6.90253C10.185 6.61257 10.5848 6.44966 11.0016 6.44966Z" fill="white"/>
</svg>
